<svg width="106" height="434" viewBox="0 0 106 434" fill="none" xmlns="http://www.w3.org/2000/svg">
<path d="M0.815857 1H77.9084V433H16.4359" stroke="#323232"/>
<path d="M77.9083 95.5H104.11" stroke="#323232"/>
<path d="M77.9083 279H104.11" stroke="#323232"/>
<path d="M102.09 95.5C102.09 96.0487 102.54 96.5 103.102 96.5C103.664 96.5 104.114 96.0487 104.114 95.5C104.114 94.9513 103.664 94.5 103.102 94.5C102.54 94.5 102.09 94.9513 102.09 95.5Z" fill="#323232" stroke="#323232"/>
<path d="M102.5 279C102.5 279.549 102.949 280 103.512 280C104.074 280 104.523 279.549 104.523 279C104.523 278.451 104.074 278 103.512 278C102.949 278 102.5 278.451 102.5 279Z" fill="#323232" stroke="#323232"/>
</svg>
